<svg viewBox="0 0 600 220" role="img" aria-label="Chaud Devant" fill="none" stroke="currentColor" stroke-linejoin="round" xmlns="http://www.w3.org/2000/svg" style="color: rgb(181, 58, 36);"><defs><style>@import url('https://fonts.googleapis.com/css2?family=Fraunces:opsz,wght@9..144,700;9..144,900&amp;display=swap');</style></defs><g transform="translate(-59, 14) scale(0.84)"><g stroke-width="5" stroke-linecap="round"><path d="M132 96C124 82 136 74 128 60C123 51 131 45 128 36"></path><path d="M158 80C150 66 162 58 155 44C150 35 158 29 155 20"></path><path d="M182 72C176 60 186 53 181 41"></path></g><g transform="rotate(6 282 126)"><path d="M124 126C140 88 266 88 282 126 Z" stroke-width="6"></path><path d="M191 98 H215 V88 H209 V78 H197 V88 H191 Z" stroke-width="5.5"></path></g><path d="M112 126 H288 V142 H112 Z" stroke-width="6"></path><path d="M118 142 L282 142 L272 200 C270 214 258 223 242 223 L158 223 C142 223 130 214 128 200 Z" stroke-width="6"></path><g stroke-width="3" opacity="0.55"><path d="M140 166 H260"></path><path d="M145 184 H255"></path></g><g stroke-width="6" stroke-linecap="round"><path d="M112 152 H94 V178 H112"></path><path d="M288 152 H306 V178 H288"></path></g></g><path d="M232 42 V178" stroke-width="2" opacity="0.4"></path><g fill="currentColor" stroke="none" font-family="Fraunces, Georgia, 'Times New Roman', serif" font-weight="900" text-anchor="start"><text x="262" y="105" font-size="52" textLength="290" lengthAdjust="spacing">CHAUD</text><text x="262" y="155" font-size="46" textLength="290" lengthAdjust="spacing">DEVANT</text><text x="262" y="190" font-size="14" font-weight="700" textLength="160" lengthAdjust="spacing" opacity="0.72">SINCE 2026</text></g></svg>